<svg xmlns="http://www.w3.org/2000/svg" viewBox="0 0 1100 280" role="img" aria-labelledby="t d">
<title id="t">DE Mentor</title><desc id="d">Option B final horizontal logo.</desc>
<defs><linearGradient id="db" x1="0" y1="0" x2="1" y2="1"><stop offset="0" stop-color="#14B8A6"/><stop offset="1" stop-color="#3B82F6"/></linearGradient><linearGradient id="book" x1="0" y1="0" x2="1" y2="1"><stop offset="0" stop-color="#67E8F9"/><stop offset="1" stop-color="#60A5FA"/></linearGradient></defs>
<rect width="1100" height="280" rx="26" fill="#FFFFFF"/>
<g transform="translate(34 26) scale(.445)"><path d="M112 102h106c114 0 184 60 184 154s-70 154-184 154H112z" fill="none" stroke="#1F2937" stroke-width="28" stroke-linejoin="round"/><path d="M146 246c29-21 58-20 88 1v93c-30-18-59-18-88 0z" fill="url(#book)"/><path d="M234 247c29-21 58-20 88 1v92c-29-18-58-18-88 0z" fill="#DBEAFE"/><path d="M234 247v93" stroke="#1F2937" stroke-width="8" stroke-linecap="round"/><g transform="translate(286 132)"><ellipse cx="52" cy="18" rx="52" ry="18" fill="#14B8A6"/><path d="M0 18v38c0 10 23 18 52 18s52-8 52-18V18" fill="url(#db)"/><ellipse cx="52" cy="56" rx="52" ry="18" fill="#0EA5E9"/><path d="M0 56v38c0 10 23 18 52 18s52-8 52-18V56" fill="#0284C7"/><ellipse cx="52" cy="94" rx="52" ry="18" fill="#38BDF8"/></g></g>
<text x="292" y="128" font-family="Inter,Segoe UI,Arial,sans-serif" font-size="82" font-weight="800" fill="#1F2937">DE</text><text x="407" y="128" font-family="Inter,Segoe UI,Arial,sans-serif" font-size="82" font-weight="700" fill="#0F766E">Mentor</text><text x="297" y="176" font-family="Inter,Segoe UI,Arial,sans-serif" font-size="22" font-weight="700" letter-spacing="5" fill="#64748B">DATA ENGINEERING • LEARN • BUILD • GROW</text>
</svg>
